<?xml version="1.0" encoding="UTF-8"?>
<svg width="37px" height="37px" viewBox="0 0 37 37" version="1.1" xmlns="http://www.w3.org/2000/svg" xmlns:xlink="http://www.w3.org/1999/xlink">
    <title>Group 13</title>
    <defs>
        <rect id="path-1" x="0" y="0" width="35" height="35" rx="13.8541667"></rect>
    </defs>
    <g id="Page-1" stroke="none" stroke-width="1" fill="none" fill-rule="evenodd">
        <g id="01-Productly" transform="translate(-778.000000, -2339.000000)">
            <g id="05-Product-Managers" transform="translate(144.000000, 2072.000000)">
                <g id="Text" transform="translate(635.000000, 49.000000)">
                    <g id="3" transform="translate(0.000000, 211.000000)">
                        <g id="Group-13" transform="translate(0.000000, 8.000000)">
                            <g id="Rectangle">
                                <rect stroke="#FFFFFF" stroke-width="2.91666667" stroke-linejoin="square" fill="#FF9900" fill-rule="evenodd" x="1.45833333" y="1.45833333" width="32.0833333" height="32.0833333" rx="13.8541667"></rect>
                                <use stroke="#FF9900" stroke-width="0.729166667" xlink:href="#path-1"></use>
                            </g>
                            <g id="tick" transform="translate(10.000000, 12.000000)" fill="#FFFFFF" fill-rule="nonzero">
                                <path d="M15.7656839,0.239311522 C15.453278,-0.0797705075 14.9467786,-0.0797705075 14.6343103,0.239311522 L5.04982196,10.0277384 L1.36570146,6.26526406 C1.05329559,5.94618203 0.546796208,5.94621395 0.234327839,6.26526406 C-0.0781092797,6.58431418 -0.0781092797,7.10158578 0.234327839,7.42066781 L4.48413515,11.7607962 C4.79644727,12.0798463 5.30332165,12.0796229 5.61550877,11.7607962 L15.7656839,1.39474719 C16.078121,1.07569708 16.0780897,0.558393552 15.7656839,0.239311522 Z" id="Path"></path>
                            </g>
                        </g>
                    </g>
                </g>
            </g>
        </g>
    </g>
</svg>