<?xml version="1.0" encoding="UTF-8"?>
<svg width="17px" height="19px" viewBox="0 0 17 19" version="1.1" xmlns="http://www.w3.org/2000/svg" xmlns:xlink="http://www.w3.org/1999/xlink">
    <title>Triangle Copy 6</title>
    <g id="Page-1" stroke="none" stroke-width="1" fill="none" fill-rule="evenodd">
        <g id="01-Productly" transform="translate(-350.000000, -506.000000)" fill="#FF9900">
            <g id="02-Header" transform="translate(145.000000, 128.000000)">
                <g id="Left-side" transform="translate(0.000000, 83.000000)">
                    <g id="Button" transform="translate(0.000000, 278.000000)">
                        <g id="button" transform="translate(205.000000, 15.000000)">
                            <path d="M9.96967599,4.64844919 L18.0027073,18.3046024 C18.3177292,18.8401396 18.1389662,19.5296541 17.6034289,19.844676 C17.4305427,19.9463738 17.2336107,20 17.0330313,20 L0.966968723,20 C0.345648379,20 -0.158031277,19.4963203 -0.158031277,18.875 C-0.158031277,18.6744206 -0.10440505,18.4774886 -0.00270726919,18.3046024 L8.03032401,4.64844919 C8.34534593,4.11291192 9.03486038,3.93414892 9.57039764,4.24917084 C9.73527052,4.34615488 9.87269195,4.48357631 9.96967599,4.64844919 Z" id="Triangle-Copy-6" transform="translate(9.000000, 11.500000) rotate(90.000000) translate(-9.000000, -11.500000) "></path>
                        </g>
                    </g>
                </g>
            </g>
        </g>
    </g>
</svg>